# xmcd
#
# Track frame offsets:
#	150
#	27238
#	45949
#	69532
#	92278
#	113734
#	136037
#	157593
#	179094
#	202707
#
# Disc length: 2978 seconds
#
# Revision: 2
# Processed by: cddbd v1.5.2PL0 Copyright (c) Steve Scherf et al.
# Submitted via: EZCDAudioConverter 8.0.2.1
#
DISCID=6c0ba00a
DTITLE=Elvis Phương - Mười Năm Tình Cũ
DYEAR=1999
DGENRE=
TTITLE0=LK Tôi muốn, Yêu người yêu đời, Thương nhau ngày mưa
TTITLE1=Về đây nghe em
TTITLE2=Mười năm tình cũ
TTITLE3=Trăm nhớ ngàn thương
TTITLE4=Áo lụa Hà Đông
TTITLE5=Riêng một góc trời
TTITLE6=Duyên kiếp
TTITLE7=Lâu đài tình ái
TTITLE8=Thuyền và biển
TTITLE9=Bài thánh ca buồn
EXTD=
EXTT0=
EXTT1=
EXTT2=
EXTT3=
EXTT4=
EXTT5=
EXTT6=
EXTT7=
EXTT8=
EXTT9=
PLAYORDER=
